<svg xmlns="http://www.w3.org/2000/svg" viewBox="0 0 48 48"><symbol id="ico-predictive" viewBox="0 0 48 48">
  <path d="M34 16H14c-2.2 0-4 1.8-4 4v20c0 2.2 1.8 4 4 4h20c2.2 0 4-1.8 4-4V20c0-2.2-1.8-4-4-4zm-8 25h-4v-3h4v3zm0-5h-4c0-3-5-6-5-10 0-3.86 3.14-7 7-7s7 3.14 7 7c0 4-5 7-5 10zm10-23H12c0-1.66 1.34-3 3-3h18c1.66 0 3 1.34 3 3zm-2-6H14c0-1.66 1.34-3 3-3h14c1.66 0 3 1.34 3 3z" fill="#4285F4"/>
  <path d="M12 13h24c0-1.66-1.34-3-3-3H15c-1.66 0-3 1.34-3 3zm2-6h20c0-1.66-1.34-3-3-3H17c-1.66 0-3 1.34-3 3z" fill="#3DDC84"/>
</symbol><use xlink:href="#ico-predictive" xmlns:xlink="http://www.w3.org/1999/xlink"/></svg>