<svg xmlns="http://www.w3.org/2000/svg" viewBox="0 0 48 48"><symbol id="ico-capture" viewBox="0 0 48 48">
  <path d="M14 34h20V14H14v20zm4-16h12v12H18V18z" fill="#4285F4"/>
  <path d="M10 10H6c0-2.2 1.8-4 4-4v4zm0 16H6v-4h4v4zm8 16h-4v-4h4v4zm-8-24H6v-4h4v4zM22 6h4v4h-4V6zm16 4V6c2.2 0 4 1.8 4 4h-4zM10 38v4c-2.2 0-4-1.8-4-4h4zm0-4H6v-4h4v4zm4-28h4v4h-4V6zm12 36h-4v-4h4v4zm16-16h-4v-4h4v4zm0 12c0 2.2-1.8 4-4 4v-4h4zm0-20h-4v-4h4v4zm0 16h-4v-4h4v4zm-8 8h-4v-4h4v4zm0-32h-4V6h4v4z" fill="#3DDC84"/>
</symbol><use xlink:href="#ico-capture" xmlns:xlink="http://www.w3.org/1999/xlink"/></svg>