<svg xmlns="http://www.w3.org/2000/svg" viewBox="0 0 39 33"><symbol id="ico-privacy-controls" viewBox="0 0 39 33">
 <g fill="none" fill-rule="evenodd">
 <path d="M-4-8h48v48H-4z"/>
 <path d="M23 23.047v3.657a20.742 20.742 0 0 1-3.5.296C10.636 27 3.067 21.402 0 13.5 3.067 5.598 10.636 0 19.5 0S35.933 5.598 39 13.5h-3.865C32.21 7.434 26.219 3.6 19.5 3.6c-6.719 0-12.71 3.834-15.635 9.9 2.925 6.066 8.899 9.9 15.635 9.9 1.195 0 2.366-.12 3.5-.353zm.932-9.547c0-2.484-1.986-4.5-4.432-4.5-2.446 0-4.432 2.016-4.432 4.5S17.054 18 19.5 18c2.446 0 4.432-2.016 4.432-4.5zM19.5 5.4c4.396 0 7.977 3.636 7.977 8.1 0 4.464-3.58 8.1-7.977 8.1-4.396 0-7.977-3.636-7.977-8.1 0-4.464 3.58-8.1 7.977-8.1z" fill="#4285F4" fill-rule="nonzero"/>
 <path d="M37.625 23h-.688v-1.429C36.938 19.6 35.398 18 33.5 18s-3.438 1.6-3.438 3.571V23h-.687c-.756 0-1.375.643-1.375 1.429v7.142c0 .786.619 1.429 1.375 1.429h8.25c.756 0 1.375-.643 1.375-1.429V24.43c0-.786-.619-1.429-1.375-1.429zm-1.994 0H31.37v-1.429c0-1.221.955-2.214 2.131-2.214 1.176 0 2.131.993 2.131 2.214V23z" fill="#3DDC84" fill-rule="nonzero"/>
 </g>
 </symbol><use xlink:href="#ico-privacy-controls" xmlns:xlink="http://www.w3.org/1999/xlink"/></svg>