<svg xmlns="http://www.w3.org/2000/svg" viewBox="0 0 49 49"><symbol id="ico-controls" viewBox="0 0 49 49">
  <path d="M26.104 40.745v-2.004h14.029a2.01 2.01 0 0 0 2.004-2.004 2.01 2.01 0 0 0-2.004-2.004h-14.03v-2.004a2.01 2.01 0 0 0-2.003-2.005 2.01 2.01 0 0 0-2.004 2.005v8.016A2.01 2.01 0 0 0 24.1 42.75a2.01 2.01 0 0 0 2.004-2.004zM14.079 20.704v2.004H8.067a2.01 2.01 0 0 0-2.005 2.004 2.01 2.01 0 0 0 2.005 2.004h6.012v2.004a2.01 2.01 0 0 0 2.004 2.004 2.01 2.01 0 0 0 2.004-2.004v-8.016a2.01 2.01 0 0 0-2.004-2.004 2.01 2.01 0 0 0-2.004 2.004zM32.116 18.7a2.01 2.01 0 0 0 2.004-2.005v-2.004h6.013a2.01 2.01 0 0 0 2.004-2.004 2.01 2.01 0 0 0-2.004-2.004H34.12V8.68a2.01 2.01 0 0 0-2.004-2.004 2.01 2.01 0 0 0-2.004 2.004v8.016a2.01 2.01 0 0 0 2.004 2.005z" fill="#4285F4"/>
  <path d="M8.067 14.691a2.01 2.01 0 0 1-2.005-2.004 2.01 2.01 0 0 1 2.005-2.004h18.037v4.008H8.067zm0 24.049a2.01 2.01 0 0 1-2.005-2.003 2.01 2.01 0 0 1 2.005-2.004h10.02v4.008H8.067zm32.066-16.032a2.01 2.01 0 0 1 2.004 2.004 2.01 2.01 0 0 1-2.004 2.004H22.096v-4.008h18.037z" fill="#3DDC84"/>
  <path d="M34.12 16.695a2.01 2.01 0 0 1-2.004 2.005 2.01 2.01 0 0 1-2.004-2.005V8.68a2.01 2.01 0 0 1 2.004-2.004A2.01 2.01 0 0 1 34.12 8.68v8.016zM18.087 28.72a2.01 2.01 0 0 1-2.004 2.004 2.01 2.01 0 0 1-2.004-2.004v-8.016a2.01 2.01 0 0 1 2.004-2.005 2.01 2.01 0 0 1 2.004 2.005v8.016zm8.017 12.025a2.01 2.01 0 0 1-2.004 2.004 2.01 2.01 0 0 1-2.004-2.004v-8.017a2.01 2.01 0 0 1 2.004-2.004 2.01 2.01 0 0 1 2.004 2.004v8.017z" fill="#4285F4"/>
</symbol><use xlink:href="#ico-controls" xmlns:xlink="http://www.w3.org/1999/xlink"/></svg>